<?xml version="1.0" standalone="no"?>
<!DOCTYPE svg PUBLIC "-//W3C//DTD SVG 20010904//EN"
 "http://www.w3.org/TR/2001/REC-SVG-20010904/DTD/svg10.dtd">
<svg version="1.0" xmlns="http://www.w3.org/2000/svg"
 width="200.000000pt" height="200.000000pt" viewBox="0 0 200.000000 200.000000"
 preserveAspectRatio="xMidYMid meet">
<metadata>
Created by potrace 1.11, written by Peter Selinger 2001-2013
</metadata>
<g transform="translate(0.000000,200.000000) scale(0.100000,-0.100000)"
fill="#000000" stroke="none">
<path d="M926 1949 c-38 -30 -36 -77 5 -113 17 -15 28 -30 25 -33 -2 -3 -45
-6 -95 -7 -99 -3 -123 -14 -120 -55 5 -62 -1 -81 -26 -91 -23 -9 -25 -15 -25
-69 0 -59 16 -91 40 -76 10 6 14 -16 10 -67 -2 -29 35 -61 67 -58 42 5 67 0
57 -10 -6 -6 -50 -11 -99 -11 -135 0 -281 -53 -344 -125 -38 -43 -51 -73 -57
-134 -3 -25 -9 -54 -15 -65 -5 -11 -18 -46 -29 -78 l-20 -59 52 -54 c70 -74
79 -72 61 17 -14 65 -13 72 3 90 40 44 80 15 100 -74 9 -38 20 -67 26 -65 6 2
21 37 34 78 l23 73 -51 56 c-28 31 -55 55 -60 53 -11 -3 -3 31 15 66 12 25 83
72 108 72 12 0 14 -36 14 -227 0 -211 1 -228 19 -244 10 -10 23 -16 28 -13 10
6 9 17 9 -241 0 -287 1 -275 -13 -273 -9 2 -14 -16 -16 -57 -2 -39 -8 -63 -18
-68 -17 -10 -19 -37 -1 -38 6 -1 78 -2 160 -3 145 -2 147 -2 147 20 0 12 -6
24 -13 27 -9 3 -13 22 -12 61 1 37 -2 57 -11 60 -10 4 -13 61 -13 259 l0 253
74 0 c41 0 76 -2 76 -5 1 -3 2 -117 3 -254 1 -220 -1 -248 -15 -252 -13 -4
-16 -17 -14 -60 1 -41 -3 -57 -17 -69 -40 -35 -15 -41 145 -40 83 1 155 2 159
3 10 2 3 32 -11 40 -7 5 -12 30 -13 62 0 30 -5 57 -11 61 -9 5 -12 80 -13 258
0 227 1 250 17 255 39 13 42 29 43 263 1 144 5 227 11 228 27 1 84 19 120 36
87 44 146 126 148 207 1 25 4 48 8 51 8 6 49 126 49 143 0 18 -102 119 -111
110 -4 -4 -2 -35 5 -68 15 -73 12 -89 -18 -103 -43 -19 -68 4 -84 81 -8 37
-20 67 -27 67 -6 0 -22 -34 -34 -75 l-23 -75 43 -48 c23 -26 49 -51 56 -55 40
-25 -10 -105 -83 -133 -38 -15 -51 -15 -79 -5 -18 6 -37 11 -42 10 -4 -1 -48
-1 -98 0 -65 1 -86 4 -78 12 6 6 30 12 54 13 52 3 70 25 65 78 -3 33 -1 39 19
44 28 7 31 14 34 77 2 52 -11 79 -35 70 -16 -6 -15 -8 -19 64 -3 76 -9 80
-116 79 -50 -1 -93 3 -96 8 -3 4 8 19 26 33 23 19 31 32 31 57 0 61 -66 93
-114 55z m72 -17 c19 -13 23 -50 5 -67 -12 -12 -18 -13 -29 -4 -11 9 -14 8
-14 -1 0 -9 -6 -8 -19 4 -31 28 -13 76 29 76 8 0 21 -4 28 -8z m-107 -233 c63
-33 29 -130 -46 -129 -20 1 -46 28 -55 58 -7 26 -4 35 15 56 26 28 54 33 86
15z m239 -9 c46 -46 7 -127 -55 -116 -40 8 -65 39 -59 74 10 56 75 81 114 42z
m-14 -182 c22 -22 11 -64 -18 -72 -45 -12 -253 -7 -272 7 -23 17 -18 58 10 72
11 5 75 10 142 10 99 -1 125 -4 138 -17z m29 -308 l0 -85 -55 -3 c-45 -2 -57
1 -67 16 -10 17 -7 25 22 54 19 21 30 41 25 47 -4 8 -19 -2 -43 -29 -20 -23
-42 -40 -49 -39 -24 5 -57 -12 -63 -32 -5 -16 -16 -19 -66 -19 -40 0 -59 4
-60 13 -6 72 -2 143 9 154 10 10 52 12 180 11 l167 -3 0 -85z"/>
</g>
</svg>
